<?xml version="1.0" standalone="no"?>
<!DOCTYPE svg PUBLIC "-//W3C//DTD SVG 20010904//EN"
 "http://www.w3.org/TR/2001/REC-SVG-20010904/DTD/svg10.dtd">
<svg version="1.0" xmlns="http://www.w3.org/2000/svg"
 width="650.000000pt" height="400.000000pt" viewBox="0 0 430.000000 400.000000"
 preserveAspectRatio="xMidYMid meet">
	<style>   
      .gri {font: italic bold 100px sans-serif; fill: #000;}
    </style> 
<metadata>
Created by potrace 1.15, written by Peter Selinger 2001-2017
</metadata>
<g transform="translate(-150.000000,400.000000) scale(0.100000,-0.100000)"
fill="#000000" stroke="none">
<path d="M1570 3591 c-19 -4 -71 -21 -115 -38 -44 -17 -116 -37 -160 -43 -44
-7 -152 -30 -240 -52 -203 -50 -309 -98 -360 -165 -19 -25 -35 -49 -35 -54 0
-14 104 -31 225 -36 66 -3 127 -9 136 -14 8 -4 49 -11 90 -14 173 -15 234 -38
296 -112 67 -81 94 -129 114 -204 29 -109 33 -184 15 -267 -27 -126 -20 -194
33 -307 16 -33 35 -78 42 -100 7 -22 19 -47 26 -56 7 -8 15 -31 19 -50 3 -19
18 -72 34 -119 40 -122 78 -343 85 -505 4 -77 13 -176 21 -220 32 -179 45
-323 41 -440 l-4 -120 -52 -85 c-59 -95 -151 -220 -162 -220 -4 0 -20 -23 -35
-51 -42 -77 -79 -92 -205 -83 -95 6 -101 5 -125 -16 -25 -24 -35 -51 -11 -33
6 6 23 13 37 16 20 5 28 1 35 -16 9 -20 17 -22 102 -22 50 0 95 -3 99 -7 4 -5
20 -8 35 -8 23 0 27 3 22 18 -6 14 -4 15 9 5 12 -11 19 -8 38 12 13 14 26 25
29 25 3 0 14 -14 23 -31 14 -24 23 -30 45 -27 42 5 46 50 17 196 -5 27 2 47
51 130 65 110 123 192 133 190 18 -3 42 16 42 33 0 11 7 22 14 25 8 3 22 28
32 56 13 40 15 70 9 157 -5 72 -3 128 5 166 12 57 12 57 43 51 18 -3 43 -15
57 -25 14 -10 40 -22 58 -26 19 -4 29 -11 26 -17 -4 -6 -1 -9 7 -6 13 4 21 0
56 -32 9 -8 19 -15 22 -15 9 -1 65 -39 73 -50 5 -6 8 -4 8 5 0 13 2 13 9 1 8
-13 12 -13 26 -1 15 12 18 12 27 -4 10 -18 11 -18 25 5 14 24 14 24 10 -8 -2
-18 0 -30 5 -27 4 3 8 12 8 20 0 9 7 14 18 12 11 -3 16 -12 15 -28 l-2 -25 11
22 c13 27 28 30 28 6 0 -12 7 -7 20 15 11 17 24 32 29 32 15 0 41 -78 41 -123
0 -56 34 -164 60 -192 15 -16 25 -50 36 -121 24 -149 22 -201 -9 -247 -14 -21
-28 -51 -32 -67 -7 -30 -37 -42 -50 -20 -10 16 -43 -6 -60 -40 -16 -32 -22
-76 -6 -51 5 8 14 10 22 6 20 -13 209 -16 209 -4 0 6 8 8 18 5 34 -10 217 -11
219 -1 0 6 -3 9 -8 8 -4 -2 -6 4 -2 13 5 13 7 13 23 -1 17 -15 19 -15 22 -1 3
14 8 14 41 -4 l38 -21 -11 21 c-6 11 -22 27 -35 36 -23 15 -37 16 -167 11 -31
-1 -60 1 -64 5 -4 4 -13 29 -20 55 -7 27 -22 73 -33 103 -10 30 -26 111 -35
180 -15 117 -15 129 1 180 12 39 17 85 15 158 -1 90 1 102 16 103 9 0 25 2 35
4 32 6 73 -15 97 -48 184 -254 434 -523 547 -590 88 -51 131 -62 158 -39 15
14 28 17 50 11 37 -8 125 -11 125 -4 0 4 -8 20 -17 38 -9 18 -16 38 -14 45 1
7 -34 50 -78 95 -44 45 -91 98 -106 117 -14 19 -53 71 -86 114 -32 44 -62 89
-64 100 -30 130 -37 226 -17 226 5 0 104 -60 222 -135 91 -58 118 -69 189 -80
42 -7 77 -12 78 -11 1 1 -16 16 -39 34 -79 61 -221 226 -261 303 -21 41 -56
99 -77 129 -21 30 -49 75 -61 99 -13 25 -45 66 -71 93 -26 27 -48 52 -48 56 0
5 -22 31 -50 59 -33 34 -50 59 -50 76 0 39 -94 304 -127 357 -12 19 -33 65
-46 101 -47 124 -66 155 -190 309 -46 57 -88 97 -127 121 -74 46 -210 159
-242 201 -13 18 -48 76 -77 128 -30 52 -90 146 -135 209 -131 183 -174 243
-211 297 -53 76 -174 147 -293 173 -57 12 -215 13 -272 2z m-540 -176 c0 -8 5
-15 10 -15 6 0 10 -6 10 -13 0 -23 64 -37 168 -37 55 0 103 -4 107 -9 3 -6
-86 -10 -228 -11 -230 -1 -316 -10 -352 -40 -10 -9 -13 -7 -11 7 3 21 111 78
208 111 76 26 88 26 88 7z"/>
</g>
<circle r="3.5" cx="8" cy="56" fill="#fff"/>
<text class="gri" x="120" y="100">ВОРОН</text> 
</svg>
